<?xml version="1.0" encoding="UTF-8" standalone="no"?>
<!DOCTYPE svg PUBLIC "-//W3C//DTD SVG 1.1//EN" "http://www.w3.org/Graphics/SVG/1.1/DTD/svg11.dtd">
<svg width="100%" height="100%" viewBox="0 0 1280 720" version="1.1" xmlns="http://www.w3.org/2000/svg" xmlns:xlink="http://www.w3.org/1999/xlink" xml:space="preserve" xmlns:serif="http://www.serif.com/" style="fill-rule:evenodd;clip-rule:evenodd;stroke-linecap:round;stroke-linejoin:round;stroke-miterlimit:1.5;">
    <g transform="matrix(1,0,0,1,0,-638.384)">
        <g id="bg" transform="matrix(1.38934,0,0,1.3093,657.16,-335.853)">
            <rect x="-473" y="744.089" width="921.297" height="549.911" style="fill:rgb(255,232,200);"/>
            <clipPath id="_clip1">
                <rect x="-473" y="744.089" width="921.297" height="549.911"/>
            </clipPath>
            <g clip-path="url(#_clip1)">
                <g>
                    <g id="tree">
                        <g transform="matrix(0.719764,0,0,0.763766,-473,256.513)">
                            <path d="M210,1153.38L210,1277.38C210,1285.66 203.279,1292.38 195,1292.38C186.721,1292.38 180,1285.66 180,1277.38L180,1153.38C180,1145.11 186.721,1138.38 195,1138.38C203.279,1138.38 210,1145.11 210,1153.38Z" style="fill:rgb(181,97,42);"/>
                            <clipPath id="_clip2">
                                <path d="M210,1153.38L210,1277.38C210,1285.66 203.279,1292.38 195,1292.38C186.721,1292.38 180,1285.66 180,1277.38L180,1153.38C180,1145.11 186.721,1138.38 195,1138.38C203.279,1138.38 210,1145.11 210,1153.38Z"/>
                            </clipPath>
                            <g clip-path="url(#_clip2)">
                                <g transform="matrix(1,0,0,1,5,2.49375)">
                                    <rect x="190" y="1118.38" width="30" height="184.006" style="fill:rgb(215,125,65);"/>
                                </g>
                            </g>
                        </g>
                        <g transform="matrix(0.785197,0,0,0.833199,-485.759,159.935)">
                            <circle cx="195" cy="1143.38" r="55" style="fill:rgb(183,15,115);"/>
                            <clipPath id="_clip3">
                                <circle cx="195" cy="1143.38" r="55"/>
                            </clipPath>
                            <g clip-path="url(#_clip3)">
                                <g transform="matrix(1.18182,0,0,1.18182,-55.4545,-212.888)">
                                    <circle cx="195" cy="1143.38" r="55" style="fill:rgb(213,23,130);"/>
                                </g>
                                <g transform="matrix(0.6875,0,0,0.6875,65,356.167)">
                                    <circle cx="170" cy="1118.38" r="10" style="fill:rgb(248,60,182);"/>
                                </g>
                                <g transform="matrix(0.916667,0,0,0.916667,16.25,115.913)">
                                    <circle cx="170" cy="1118.38" r="10" style="fill:rgb(248,60,182);"/>
                                </g>
                            </g>
                        </g>
                    </g>
                    <g id="tree1" serif:id="tree" transform="matrix(0.791667,0,0,0.827218,-31.5137,223.846)">
                        <g transform="matrix(0.719764,0,0,0.763766,-473,256.513)">
                            <path d="M210,1152.74L210,1278.03C210,1285.95 203.279,1292.38 195,1292.38C186.721,1292.38 180,1285.95 180,1278.03L180,1152.74C180,1144.82 186.721,1138.38 195,1138.38C203.279,1138.38 210,1144.82 210,1152.74Z" style="fill:rgb(181,97,42);"/>
                            <clipPath id="_clip4">
                                <path d="M210,1152.74L210,1278.03C210,1285.95 203.279,1292.38 195,1292.38C186.721,1292.38 180,1285.95 180,1278.03L180,1152.74C180,1144.82 186.721,1138.38 195,1138.38C203.279,1138.38 210,1144.82 210,1152.74Z"/>
                            </clipPath>
                            <g clip-path="url(#_clip4)">
                                <g transform="matrix(1,0,0,1,5,2.49375)">
                                    <rect x="190" y="1118.38" width="30" height="184.006" style="fill:rgb(215,125,65);"/>
                                </g>
                            </g>
                        </g>
                        <g transform="matrix(0.785197,0,0,0.833199,-485.759,159.935)">
                            <circle cx="195" cy="1143.38" r="55" style="fill:rgb(183,15,115);"/>
                            <clipPath id="_clip5">
                                <circle cx="195" cy="1143.38" r="55"/>
                            </clipPath>
                            <g clip-path="url(#_clip5)">
                                <g transform="matrix(1.18182,0,0,1.18182,-55.4545,-212.888)">
                                    <circle cx="195" cy="1143.38" r="55" style="fill:rgb(213,23,130);"/>
                                </g>
                                <g transform="matrix(0.6875,0,0,0.6875,65,356.167)">
                                    <circle cx="170" cy="1118.38" r="10" style="fill:rgb(248,60,182);"/>
                                </g>
                                <g transform="matrix(0.916667,0,0,0.916667,16.25,115.913)">
                                    <circle cx="170" cy="1118.38" r="10" style="fill:rgb(248,60,182);"/>
                                </g>
                            </g>
                        </g>
                    </g>
                    <g id="bush">
                        <g transform="matrix(0.719764,0,0,0.763766,-473,256.513)">
                            <circle cx="180" cy="1268.38" r="40" style="fill:rgb(36,158,85);stroke:white;stroke-width:2.5px;"/>
                        </g>
                        <g transform="matrix(0.719764,0,0,0.763766,-473,256.513)">
                            <circle cx="170" cy="1258.38" r="10" style="fill:rgb(49,236,124);"/>
                        </g>
                        <g transform="matrix(0.359882,0,0,0.381883,-401.024,733.249)">
                            <circle cx="170" cy="1258.38" r="10" style="fill:rgb(49,236,124);"/>
                        </g>
                    </g>
                    <g id="bush1" serif:id="bush" transform="matrix(0.83125,0,0,0.83125,547.95,209.245)">
                        <g transform="matrix(0.719764,0,0,0.763766,-473,256.513)">
                            <circle cx="180" cy="1268.38" r="40" style="fill:rgb(36,158,85);stroke:white;stroke-width:3.01px;"/>
                        </g>
                        <g transform="matrix(0.719764,0,0,0.763766,-473,256.513)">
                            <circle cx="170" cy="1258.38" r="10" style="fill:rgb(49,236,124);"/>
                        </g>
                        <g transform="matrix(0.359882,0,0,0.381883,-401.024,733.249)">
                            <circle cx="170" cy="1258.38" r="10" style="fill:rgb(49,236,124);"/>
                        </g>
                    </g>
                    <g id="bush2" serif:id="bush" transform="matrix(0.675,0,0,0.675,-80.669,405.848)">
                        <g transform="matrix(0.719764,0,0,0.763766,-473,256.513)">
                            <circle cx="180" cy="1268.38" r="40" style="fill:rgb(36,158,85);stroke:white;stroke-width:3.7px;"/>
                        </g>
                        <g transform="matrix(0.719764,0,0,0.763766,-473,256.513)">
                            <circle cx="170" cy="1258.38" r="10" style="fill:rgb(49,236,124);"/>
                        </g>
                    </g>
                    <g id="bush3" serif:id="bush" transform="matrix(0.561094,0,0,0.561094,480.894,546.606)">
                        <g transform="matrix(0.719764,0,0,0.763766,-473,256.513)">
                            <circle cx="180" cy="1268.38" r="40" style="fill:rgb(36,158,85);stroke:white;stroke-width:4.46px;"/>
                        </g>
                        <g transform="matrix(0.719764,0,0,0.763766,-473,256.513)">
                            <circle cx="170" cy="1258.38" r="10" style="fill:rgb(49,236,124);"/>
                        </g>
                    </g>
                    <g>
                        <g transform="matrix(0.359882,0,0,0.763766,-228.28,254.316)">
                            <path d="M690,1240.88L690,1301.64C690,1303.02 687.76,1304.14 685,1304.14C682.24,1304.14 680,1303.02 680,1301.64L680,1240.88C680,1239.5 682.24,1238.38 685,1238.38C687.76,1238.38 690,1239.5 690,1240.88Z" style="fill:rgb(32,142,77);"/>
                        </g>
                        <g transform="matrix(0.359882,0,0,0.589531,-222.882,481.542)">
                            <path d="M690,1241.62L690,1300.9C690,1302.69 687.76,1304.14 685,1304.14C682.24,1304.14 680,1302.69 680,1300.9L680,1241.62C680,1239.84 682.24,1238.38 685,1238.38C687.76,1238.38 690,1239.84 690,1241.62Z" style="fill:rgb(32,142,77);"/>
                        </g>
                    </g>
                    <g transform="matrix(1,0,0,1,134.956,17.4723)">
                        <g transform="matrix(0.359882,0,0,0.763766,-228.28,254.316)">
                            <path d="M690,1240.88L690,1301.64C690,1303.02 687.76,1304.14 685,1304.14C682.24,1304.14 680,1303.02 680,1301.64L680,1240.88C680,1239.5 682.24,1238.38 685,1238.38C687.76,1238.38 690,1239.5 690,1240.88Z" style="fill:rgb(32,142,77);"/>
                        </g>
                        <g transform="matrix(0.359882,0,0,0.589531,-222.882,481.542)">
                            <path d="M690,1241.62L690,1300.9C690,1302.69 687.76,1304.14 685,1304.14C682.24,1304.14 680,1302.69 680,1300.9L680,1241.62C680,1239.84 682.24,1238.38 685,1238.38C687.76,1238.38 690,1239.84 690,1241.62Z" style="fill:rgb(32,142,77);"/>
                        </g>
                    </g>
                    <g>
                        <g>
                            <g transform="matrix(0.719764,0,0,0.763766,-473,256.513)">
                                <circle cx="415" cy="1308.38" r="5" style="fill:rgb(250,182,132);"/>
                            </g>
                            <g transform="matrix(0.359882,0,0,0.381883,-318.251,758.072)">
                                <circle cx="415" cy="1308.38" r="5" style="fill:rgb(250,182,132);"/>
                            </g>
                        </g>
                        <g transform="matrix(1,0,0,1,-100.767,22.913)">
                            <g transform="matrix(0.719764,0,0,0.763766,-473,256.513)">
                                <circle cx="415" cy="1308.38" r="5" style="fill:rgb(250,182,132);"/>
                            </g>
                            <g transform="matrix(0.359882,0,0,0.381883,-318.251,758.072)">
                                <circle cx="415" cy="1308.38" r="5" style="fill:rgb(250,182,132);"/>
                            </g>
                        </g>
                        <g transform="matrix(0.719764,0,0,0.763766,-480.198,256.513)">
                            <rect x="-40" y="1288.38" width="1380" height="80" style="fill:rgb(255,232,200);"/>
                        </g>
                        <g transform="matrix(0.719764,0,0,0.763766,-473,256.513)">
                            <path d="M120,1313.38C120,1316.14 117.76,1318.38 115,1318.38L75,1318.38C72.24,1318.38 70,1316.14 70,1313.38C70,1310.62 72.24,1308.38 75,1308.38L115,1308.38C117.76,1308.38 120,1310.62 120,1313.38Z" style="fill:rgb(250,182,132);"/>
                        </g>
                        <g transform="matrix(0.719764,0,0,0.763766,-447.808,267.969)">
                            <path d="M120,1313.38C120,1316.14 117.76,1318.38 115,1318.38L75,1318.38C72.24,1318.38 70,1316.14 70,1313.38C70,1310.62 72.24,1308.38 75,1308.38L115,1308.38C117.76,1308.38 120,1310.62 120,1313.38Z" style="fill:rgb(250,182,132);"/>
                        </g>
                        <g transform="matrix(0.719764,0,0,0.763766,185.584,260.332)">
                            <path d="M120,1313.38C120,1316.14 117.76,1318.38 115,1318.38L75,1318.38C72.24,1318.38 70,1316.14 70,1313.38C70,1310.62 72.24,1308.38 75,1308.38L115,1308.38C117.76,1308.38 120,1310.62 120,1313.38Z" style="fill:rgb(250,182,132);"/>
                        </g>
                        <g transform="matrix(0.719764,0,0,0.763766,203.578,271.788)">
                            <path d="M120,1313.38C120,1316.14 117.76,1318.38 115,1318.38L75,1318.38C72.24,1318.38 70,1316.14 70,1313.38C70,1310.62 72.24,1308.38 75,1308.38L115,1308.38C117.76,1308.38 120,1310.62 120,1313.38Z" style="fill:rgb(250,182,132);"/>
                        </g>
                        <g transform="matrix(0.503835,0,0,0.763766,-94.4043,252.694)">
                            <path d="M120,1313.38C120,1316.14 116.799,1318.38 112.857,1318.38L77.143,1318.38C73.201,1318.38 70,1316.14 70,1313.38C70,1310.62 73.201,1308.38 77.143,1308.38L112.857,1308.38C116.799,1308.38 120,1310.62 120,1313.38Z" style="fill:rgb(250,182,132);"/>
                        </g>
                        <g transform="matrix(0.503835,0,0,0.763766,-108.8,264.151)">
                            <path d="M120,1313.38C120,1316.14 116.799,1318.38 112.857,1318.38L77.143,1318.38C73.201,1318.38 70,1316.14 70,1313.38C70,1310.62 73.201,1308.38 77.143,1308.38L112.857,1308.38C116.799,1308.38 120,1310.62 120,1313.38Z" style="fill:rgb(250,182,132);"/>
                        </g>
                    </g>
                </g>
                <g transform="matrix(0.719764,0,0,0.381883,-473,751.58)">
                    <rect x="-20" y="1268.38" width="1310" height="20" style="fill:rgb(250,182,132);"/>
                </g>
                <g>
                    <g transform="matrix(0.575811,0,0,0.591918,-447.089,386.839)">
                        <path d="M280,778.384C280,789.422 271.318,798.384 260.625,798.384L199.375,798.384C188.682,798.384 180,789.422 180,778.384C180,767.346 188.682,758.384 199.375,758.384L260.625,758.384C271.318,758.384 280,767.346 280,778.384Z" style="fill:white;"/>
                    </g>
                    <g transform="matrix(0.359882,0,0,0.381883,-397.425,538.489)">
                        <path d="M280,778.384C280,789.422 271.038,798.384 260,798.384L200,798.384C188.962,798.384 180,789.422 180,778.384C180,767.346 188.962,758.384 200,758.384L260,758.384C271.038,758.384 280,767.346 280,778.384Z" style="fill:white;"/>
                    </g>
                </g>
                <g transform="matrix(0.496637,0,0,0.400977,-266.572,500.332)">
                    <path d="M280,778.384C280,789.422 273.181,798.384 264.783,798.384L195.217,798.384C186.819,798.384 180,789.422 180,778.384C180,767.346 186.819,758.384 195.217,758.384L264.783,758.384C273.181,758.384 280,767.346 280,778.384Z" style="fill:white;"/>
                </g>
                <g transform="matrix(0.496637,0,0,0.400977,-241.74,523.245)">
                    <path d="M280,778.384C280,789.422 273.181,798.384 264.783,798.384L195.217,798.384C186.819,798.384 180,789.422 180,778.384C180,767.346 186.819,758.384 195.217,758.384L264.783,758.384C273.181,758.384 280,767.346 280,778.384Z" style="fill:white;"/>
                </g>
                <g transform="matrix(0.496637,0,0,0.400977,-97.7872,485.056)">
                    <path d="M280,778.384C280,789.422 273.181,798.384 264.783,798.384L195.217,798.384C186.819,798.384 180,789.422 180,778.384C180,767.346 186.819,758.384 195.217,758.384L264.783,758.384C273.181,758.384 280,767.346 280,778.384Z" style="fill:white;"/>
                </g>
                <g transform="matrix(0.719764,0,0,0.668295,74.0204,340.755)">
                    <path d="M280,778.384C280,789.422 272.159,798.384 262.5,798.384L197.5,798.384C187.841,798.384 180,789.422 180,778.384C180,767.346 187.841,758.384 197.5,758.384L262.5,758.384C272.159,758.384 280,767.346 280,778.384Z" style="fill:white;"/>
                </g>
                <g transform="matrix(0.719764,0,0,0.668295,117.206,310.204)">
                    <path d="M280,778.384C280,789.422 272.159,798.384 262.5,798.384L197.5,798.384C187.841,798.384 180,789.422 180,778.384C180,767.346 187.841,758.384 197.5,758.384L262.5,758.384C272.159,758.384 280,767.346 280,778.384Z" style="fill:white;"/>
                </g>
            </g>
        </g>
    </g>
</svg>
