<?xml version="1.0" encoding="UTF-8" standalone="no"?>
<!DOCTYPE svg PUBLIC "-//W3C//DTD SVG 1.1//EN" "http://www.w3.org/Graphics/SVG/1.1/DTD/svg11.dtd">
<svg width="100%" height="100%" viewBox="0 0 260 370" version="1.1" xmlns="http://www.w3.org/2000/svg" xmlns:xlink="http://www.w3.org/1999/xlink" xml:space="preserve" xmlns:serif="http://www.serif.com/" style="fill-rule:evenodd;clip-rule:evenodd;stroke-linecap:round;stroke-linejoin:round;stroke-miterlimit:1.5;">
    <g transform="matrix(1,0,0,1,-440,-10)">
        <rect id="Crocy" x="440" y="10" width="260" height="370" style="fill:none;"/>
        <g id="Crocy1" serif:id="Crocy">
            <g transform="matrix(1,0,0,1,35,-5.00007)">
                <g id="right-foot" serif:id="right foot" transform="matrix(-0.66828,0,0,0.66828,954.237,99.4677)">
                    <path d="M520,273.249L500,310L520,300L520,317.925L532.662,310L540,330L560,290" style="fill:rgb(32,142,77);stroke:black;stroke-width:1.42px;"/>
                </g>
                <path d="M540.097,301.037C540.097,301.037 551.663,354.938 560,355C569.335,355.069 580,301.037 580,301.037" style="fill:rgb(104,192,68);stroke:black;stroke-width:0.75px;"/>
                <g id="body" transform="matrix(1,0,0,1,-10,-32.0748)">
                    <ellipse cx="570" cy="250" rx="70" ry="100" style="fill:rgb(104,192,68);stroke:black;stroke-width:0.65px;"/>
                </g>
                <g id="left-foot" serif:id="left foot" transform="matrix(0.66828,0,0,0.66828,165.86,99.4677)">
                    <path d="M520,273.249L500,310L520,300L520,317.925L532.662,310L540,330L560,290" style="fill:rgb(104,192,68);stroke:black;stroke-width:1.42px;"/>
                </g>
                <g id="left-foot1" serif:id="left foot" transform="matrix(0.462514,0.482368,0.482368,-0.462514,179.398,78.099)">
                    <path d="M520,273.249L500,310L520,300L520,317.925L532.662,310L540,330L560,290" style="fill:rgb(104,192,68);stroke:black;stroke-width:1.42px;"/>
                </g>
                <g id="right-eye" serif:id="right eye" transform="matrix(1,0,0,1,8.90323,-34.0962)">
                    <g transform="matrix(1,0,0,1,11.0968,-5.90383)">
                        <ellipse cx="514.5" cy="182.952" rx="14.5" ry="7.048" style="stroke:black;stroke-width:0.75px;"/>
                    </g>
                    <g transform="matrix(0.5,0,0,0.5,262.798,85.5721)">
                        <ellipse cx="514.5" cy="182.952" rx="14.5" ry="7.048" style="fill:rgb(238,240,245);stroke:black;stroke-width:1.5px;"/>
                    </g>
                </g>
                <path id="snout" d="M520.048,162C545.048,153.333 533.398,83.333 540.048,70C545.985,58.097 574.015,58.097 579.952,70C586.602,83.333 576.659,150 580,150C583.341,150 591.667,80 600,70C607.685,60.777 620,77.995 620,90C620,106.667 611.048,170 611.048,170" style="fill:rgb(104,192,68);stroke:black;stroke-width:0.75px;"/>
                <g id="left-eye" serif:id="left eye">
                    <g transform="matrix(1,0,0,1,11.0968,-5.90383)">
                        <ellipse cx="514.5" cy="182.952" rx="14.5" ry="7.048" style="stroke:black;stroke-width:0.75px;"/>
                    </g>
                    <g transform="matrix(0.5,0,0,0.5,262.798,85.5721)">
                        <ellipse cx="514.5" cy="182.952" rx="14.5" ry="7.048" style="fill:rgb(238,240,245);stroke:black;stroke-width:1.5px;"/>
                    </g>
                </g>
                <path d="M549,70L556,78" style="fill:none;stroke:rgb(28,111,61);stroke-width:2.5px;"/>
                <g transform="matrix(-1,0,0,1,1125.1,0.413893)">
                    <path d="M500,202L465,230L500,225L480,250L504,250L490,270L511.097,264" style="fill:rgb(104,192,68);stroke:black;stroke-width:0.85px;"/>
                </g>
            </g>
            <g transform="matrix(1,0,0,1,7.25,-53.1723)">
                <path d="M505,226.25L505,245.75C505,249.751 501.751,253 497.75,253L483.25,253C479.249,253 476,249.751 476,245.75L476,226.25C476,222.249 479.249,219 483.25,219L497.75,219C501.751,219 505,222.249 505,226.25Z" style="fill:rgb(185,207,223);"/>
                <clipPath id="_clip1">
                    <path d="M505,226.25L505,245.75C505,249.751 501.751,253 497.75,253L483.25,253C479.249,253 476,249.751 476,245.75L476,226.25C476,222.249 479.249,219 483.25,219L497.75,219C501.751,219 505,222.249 505,226.25Z"/>
                </clipPath>
                <g clip-path="url(#_clip1)">
                    <g transform="matrix(1,0,0,1,14.5,0)">
                        <rect x="476" y="219" width="29" height="34" style="fill:rgb(144,171,189);"/>
                    </g>
                </g>
            </g>
            <g transform="matrix(1.53448,0,0,2.71095,-254.914,-410.871)">
                <path d="M505,223.104L505,248.896C505,251.161 501.751,253 497.75,253L483.25,253C479.249,253 476,251.161 476,248.896L476,223.104C476,220.839 479.249,219 483.25,219L497.75,219C501.751,219 505,220.839 505,223.104Z" style="fill:rgb(185,207,223);"/>
                <clipPath id="_clip2">
                    <path d="M505,223.104L505,248.896C505,251.161 501.751,253 497.75,253L483.25,253C479.249,253 476,251.161 476,248.896L476,223.104C476,220.839 479.249,219 483.25,219L497.75,219C501.751,219 505,220.839 505,223.104Z"/>
                </clipPath>
                <g clip-path="url(#_clip2)">
                    <g transform="matrix(1,0,0,1,14.5,0)">
                        <rect x="476" y="219" width="29" height="34" style="fill:rgb(144,171,189);"/>
                    </g>
                </g>
            </g>
            <g transform="matrix(1,0,0,1,10.5,-37.0749)">
                <path d="M460,252L460,278C460,279.104 459.104,280 458,280L454,280C452.896,280 452,279.104 452,278L452,252C452,250.896 452.896,250 454,250L458,250C459.104,250 460,250.896 460,252Z" style="fill:rgb(144,171,189);"/>
            </g>
            <g transform="matrix(1,0,0,1,41.75,-40)">
                <path d="M460,252L460,278C460,279.104 459.104,280 458,280L454,280C452.896,280 452,279.104 452,278L452,252C452,250.896 452.896,250 454,250L458,250C459.104,250 460,250.896 460,252Z" style="fill:rgb(0,51,67);"/>
            </g>
            <g transform="matrix(1,0,0,-1,-4,641)">
                <path d="M504,284C504,284 520,326.7 520,345C520,353.831 512.831,361 504,361C495.169,361 488,353.831 488,345C488,326.7 504,284 504,284Z" style="fill:rgb(0,194,243);"/>
            </g>
            <g transform="matrix(0.554688,-3.06783e-17,3.06783e-17,-0.805195,220.438,570.675)">
                <path d="M504,284C504,284 520,330.184 520,349.978C520,356.061 512.831,361 504,361C495.169,361 488,356.061 488,349.978C488,330.184 504,284 504,284Z" style="fill:rgb(153,231,250);"/>
            </g>
            <path d="M530,215.574L530,237.351C530,238.813 528.813,240 527.351,240L514.899,240C513.437,240 512.25,238.813 512.25,237.351L512.25,215.574C512.25,214.112 513.437,212.925 514.899,212.925L527.351,212.925C528.813,212.925 530,214.112 530,215.574Z"/>
            <path d="M525,226.463C525,226.463 559.344,244.672 595,245C627.257,245.297 655,226.463 655,226.463" style="fill:none;stroke:black;stroke-width:7px;"/>
            <g transform="matrix(0.684966,-0.202546,0.207042,0.700169,155.445,197.213)">
                <path d="M649,228.972L649,242.494C649,243.879 647.851,245.003 646.435,245.003L637.565,245.003C636.149,245.003 635,243.879 635,242.494L635,228.972C635,227.587 636.149,226.463 637.565,226.463L646.435,226.463C647.851,226.463 649,227.587 649,228.972Z" style="fill:rgb(238,240,245);"/>
            </g>
        </g>
    </g>
</svg>
