<?xml version="1.0" encoding="UTF-8" standalone="no"?>
<!DOCTYPE svg PUBLIC "-//W3C//DTD SVG 1.1//EN" "http://www.w3.org/Graphics/SVG/1.1/DTD/svg11.dtd">
<svg width="100%" height="100%" viewBox="0 0 340 400" version="1.1" xmlns="http://www.w3.org/2000/svg" xmlns:xlink="http://www.w3.org/1999/xlink" xml:space="preserve" xmlns:serif="http://www.serif.com/" style="fill-rule:evenodd;clip-rule:evenodd;stroke-linecap:round;stroke-linejoin:round;stroke-miterlimit:1.5;">
    <g id="muffy" transform="matrix(1,0,0,1,-580,-920)">
        <rect x="580" y="920" width="340" height="400" style="fill:none;"/>
        <g id="jtpack">
            <g transform="matrix(1,0,0,1,580,913.704)">
                <path d="M200,300L195,321.296L145,321.296L140,300L200,300Z" style="fill:rgb(153,255,184);"/>
                <clipPath id="_clip1">
                    <path d="M200,300L195,321.296L145,321.296L140,300L200,300Z"/>
                </clipPath>
                <g clip-path="url(#_clip1)">
                    <g transform="matrix(1,0,0,1,0,6.29561)">
                        <rect x="170" y="300" width="35" height="20" style="fill:rgb(49,236,124);"/>
                    </g>
                </g>
            </g>
            <g transform="matrix(1.39147,0,0,1,501.687,898.526)">
                <path d="M216.637,109.109L216.637,310.3C216.637,318.512 211.846,325.178 205.945,325.178L150.928,325.178C144.159,325.178 138.663,317.531 138.663,308.112L138.663,109.652C138.663,83.924 153.674,63.036 172.164,63.036L183.527,63.036C201.801,63.036 216.637,83.681 216.637,109.109Z" style="fill:rgb(153,255,184);"/>
                <clipPath id="_clip2">
                    <path d="M216.637,109.109L216.637,310.3C216.637,318.512 211.846,325.178 205.945,325.178L150.928,325.178C144.159,325.178 138.663,317.531 138.663,308.112L138.663,109.652C138.663,83.924 153.674,63.036 172.164,63.036L183.527,63.036C201.801,63.036 216.637,83.681 216.637,109.109Z"/>
                </clipPath>
                <g clip-path="url(#_clip2)">
                    <g transform="matrix(0.718664,0,0,1,60.2924,15.026)">
                        <rect x="164.418" y="24.042" width="88.059" height="310.079" style="fill:rgb(49,236,124);"/>
                    </g>
                </g>
            </g>
            <g id="plume">
                <g transform="matrix(1,0,0,-1,580,1630)">
                    <path d="M170,320C170,320 190,355 190,370C190,381.038 181.038,390 170,390C158.962,390 150,381.038 150,370C150,355 170,320 170,320Z" style="fill:rgb(248,60,182);"/>
                </g>
                <g transform="matrix(0.785714,1.40868e-32,1.40868e-32,-0.785714,616.429,1546.43)">
                    <path d="M170,320C170,320 190,355 190,370C190,381.038 181.038,390 170,390C158.962,390 150,381.038 150,370C150,355 170,320 170,320Z" style="fill:rgb(255,131,220);"/>
                </g>
            </g>
        </g>
        <g id="jetpack" transform="matrix(1,0,0,1,-10,-10)">
            <g transform="matrix(1,0,0,1,579,920)">
                <path d="M292,273L289,286L263,286L260,273L292,273Z" style="fill:rgb(248,60,182);"/>
                <clipPath id="_clip3">
                    <path d="M292,273L289,286L263,286L260,273L292,273Z"/>
                </clipPath>
                <g clip-path="url(#_clip3)">
                    <g transform="matrix(1,0,0,1,1,0)">
                        <rect x="275" y="263" width="19" height="29" style="fill:rgb(255,96,207);"/>
                    </g>
                </g>
            </g>
            <g transform="matrix(1,0,0,1,580,920)">
                <path d="M300,102.786L300,267.5C300,274.399 294.399,280 287.5,280L262.5,280C255.601,280 250,274.399 250,267.5L250,103C250,90.306 260.306,80 273,80L277.214,80C289.79,80 300,90.21 300,102.786Z" style="fill:rgb(248,60,182);"/>
                <clipPath id="_clip4">
                    <path d="M300,102.786L300,267.5C300,274.399 294.399,280 287.5,280L262.5,280C255.601,280 250,274.399 250,267.5L250,103C250,90.306 260.306,80 273,80L277.214,80C289.79,80 300,90.21 300,102.786Z"/>
                </clipPath>
                <g clip-path="url(#_clip4)">
                    <g transform="matrix(1,0,0,1,5,3.1478)">
                        <rect x="270" y="60" width="50" height="233.704" style="fill:rgb(255,96,207);"/>
                    </g>
                </g>
            </g>
            <g id="plume1" serif:id="plume">
                <g transform="matrix(1.05882,0,0,-0.861538,564.412,1513.98)">
                    <path d="M273.5,289C273.5,289 282,327.187 282,343.554C282,349.319 278.191,354 273.5,354C268.809,354 265,349.319 265,343.554C265,327.187 273.5,289 273.5,289Z" style="fill:rgb(255,164,2);"/>
                </g>
                <g transform="matrix(0.661765,0,0,-0.538462,673.007,1400.62)">
                    <path d="M273.5,289C273.5,289 282,327.187 282,343.554C282,349.319 278.191,354 273.5,354C268.809,354 265,349.319 265,343.554C265,327.187 273.5,289 273.5,289Z" style="fill:rgb(251,223,99);"/>
                </g>
            </g>
        </g>
        <g id="jetpack1" serif:id="jetpack" transform="matrix(1,0,0,1,-200,-10)">
            <g transform="matrix(1,0,0,1,579,920)">
                <path d="M292,273L289,286L263,286L260,273L292,273Z" style="fill:rgb(248,60,182);"/>
                <clipPath id="_clip5">
                    <path d="M292,273L289,286L263,286L260,273L292,273Z"/>
                </clipPath>
                <g clip-path="url(#_clip5)">
                    <g transform="matrix(1,0,0,1,1,0)">
                        <rect x="275" y="263" width="19" height="29" style="fill:rgb(255,96,207);"/>
                    </g>
                </g>
            </g>
            <g transform="matrix(1,0,0,1,580,920)">
                <path d="M300,102.786L300,267.5C300,274.399 294.399,280 287.5,280L262.5,280C255.601,280 250,274.399 250,267.5L250,103C250,90.306 260.306,80 273,80L277.214,80C289.79,80 300,90.21 300,102.786Z" style="fill:rgb(248,60,182);"/>
                <clipPath id="_clip6">
                    <path d="M300,102.786L300,267.5C300,274.399 294.399,280 287.5,280L262.5,280C255.601,280 250,274.399 250,267.5L250,103C250,90.306 260.306,80 273,80L277.214,80C289.79,80 300,90.21 300,102.786Z"/>
                </clipPath>
                <g clip-path="url(#_clip6)">
                    <g transform="matrix(1,0,0,1,5,3.1478)">
                        <rect x="270" y="60" width="50" height="233.704" style="fill:rgb(255,96,207);"/>
                    </g>
                </g>
            </g>
            <g id="plume2" serif:id="plume">
                <g transform="matrix(1.05882,0,0,-0.861538,564.412,1513.98)">
                    <path d="M273.5,289C273.5,289 282,327.187 282,343.554C282,349.319 278.191,354 273.5,354C268.809,354 265,349.319 265,343.554C265,327.187 273.5,289 273.5,289Z" style="fill:rgb(255,164,2);"/>
                </g>
                <g transform="matrix(0.661765,0,0,-0.538462,673.007,1400.62)">
                    <path d="M273.5,289C273.5,289 282,327.187 282,343.554C282,349.319 278.191,354 273.5,354C268.809,354 265,349.319 265,343.554C265,327.187 273.5,289 273.5,289Z" style="fill:rgb(251,223,99);"/>
                </g>
            </g>
        </g>
        <g transform="matrix(0.803349,0,0,0.81311,151.505,184.993)">
            <g id="left-ear" serif:id="left ear" transform="matrix(1,0,0,1,-20,15.075)">
                <g transform="matrix(1,0,0,1,580,920)">
                    <path d="M91.637,130C91.637,130 126.94,63.333 140,60C153.06,56.667 170,110 170,110" style="fill:rgb(77,212,247);stroke:black;stroke-width:1.24px;"/>
                </g>
                <g transform="matrix(0.714897,0,0,0.714897,618.468,952.138)">
                    <path d="M91.637,130C91.637,130 126.94,63.333 140,60C153.06,56.667 170,110 170,110" style="fill:rgb(0,194,243);stroke:black;stroke-width:1.73px;"/>
                </g>
            </g>
            <g id="right-ear" serif:id="right ear" transform="matrix(-1,0,0,1,1500.82,10)">
                <g transform="matrix(1,0,0,1,580,920)">
                    <path d="M91.637,130C91.637,130 126.94,63.333 140,60C153.06,56.667 170,110 170,110" style="fill:rgb(77,212,247);stroke:black;stroke-width:1.24px;"/>
                </g>
                <g transform="matrix(0.714897,0,0,0.714897,618.468,952.138)">
                    <path d="M91.637,130C91.637,130 126.94,63.333 140,60C153.06,56.667 170,110 170,110" style="fill:rgb(0,194,243);stroke:black;stroke-width:1.73px;"/>
                </g>
            </g>
            <g id="left-leg" serif:id="left leg" transform="matrix(1,0,0,1,591.989,920)">
                <path d="M130,294.82L130,325.18C130,333.359 123.279,340 115,340C106.721,340 100,333.359 100,325.18L100,294.82C100,286.641 106.721,280 115,280C123.279,280 130,286.641 130,294.82Z" style="fill:rgb(77,212,247);stroke:black;stroke-width:1.24px;"/>
            </g>
            <g id="right-leg" serif:id="right leg" transform="matrix(1,0,0,1,655,920)">
                <path d="M130,294.82L130,325.18C130,333.359 123.279,340 115,340C106.721,340 100,333.359 100,325.18L100,294.82C100,286.641 106.721,280 115,280C123.279,280 130,286.641 130,294.82Z" style="fill:rgb(77,212,247);stroke:black;stroke-width:1.24px;"/>
            </g>
            <g id="body" transform="matrix(1,0,0,1,580,920)">
                <ellipse cx="165" cy="215" rx="125" ry="105" style="fill:rgb(77,212,247);"/>
                <clipPath id="_clip7">
                    <ellipse cx="165" cy="215" rx="125" ry="105"/>
                </clipPath>
                <g clip-path="url(#_clip7)">
                    <g id="belt" transform="matrix(1.24479,0,0,1.22985,-768.592,-1147.51)">
                        <g transform="matrix(1,0,0,1,580,920)">
                            <path d="M70.589,200C70.589,200 134.101,207.394 166,207.394C199.137,207.394 269.411,200 269.411,200" style="fill:none;stroke:black;stroke-width:10px;"/>
                        </g>
                        <g transform="matrix(0.750548,0,0,0.750548,625.042,972.805)">
                            <path d="M174,196.438L174,215.5C174,217.984 171.984,220 169.5,220L160.5,220C158.016,220 156,217.984 156,215.5L156,196.438C156,193.955 158.016,191.938 160.5,191.938L169.5,191.938C171.984,191.938 174,193.955 174,196.438Z" style="fill:rgb(238,240,245);"/>
                        </g>
                    </g>
                </g>
                <ellipse cx="165" cy="215" rx="125" ry="105" style="fill:none;stroke:black;stroke-width:1.24px;"/>
            </g>
            <g id="left-hand" serif:id="left hand">
                <g transform="matrix(1,0,0,1,580,920)">
                    <path d="M100,220C100,220 86.781,258.904 111.989,260C134.257,260.968 130,220 130,220" style="fill:rgb(77,212,247);stroke:black;stroke-width:1.24px;"/>
                </g>
                <g transform="matrix(1,0,0,1,580,920)">
                    <path d="M104.992,258.366L105,245" style="fill:none;stroke:black;stroke-width:1.24px;"/>
                </g>
                <g transform="matrix(1,0,0,1,586.989,921.634)">
                    <path d="M104.992,258.366L105,245" style="fill:none;stroke:black;stroke-width:1.24px;"/>
                </g>
                <g transform="matrix(1,-1.58727e-16,-1.58836e-16,1,595.008,920.651)">
                    <path d="M104.992,258.366L105,245" style="fill:none;stroke:black;stroke-width:1.24px;"/>
                </g>
            </g>
            <g id="right-hand" serif:id="right hand" transform="matrix(1,0,0,1,83.464,-1)">
                <g transform="matrix(1,0,0,1,580,920)">
                    <path d="M100,220C100,220 86.781,258.904 111.989,260C134.257,260.968 130,220 130,220" style="fill:rgb(77,212,247);stroke:black;stroke-width:1.24px;"/>
                </g>
                <g transform="matrix(1,0,0,1,580,920)">
                    <path d="M104.992,258.366L105,245" style="fill:none;stroke:black;stroke-width:1.24px;"/>
                </g>
                <g transform="matrix(1,0,0,1,586.989,921.634)">
                    <path d="M104.992,258.366L105,245" style="fill:none;stroke:black;stroke-width:1.24px;"/>
                </g>
                <g transform="matrix(1,-1.58727e-16,-1.58836e-16,1,595.008,920.651)">
                    <path d="M104.992,258.366L105,245" style="fill:none;stroke:black;stroke-width:1.24px;"/>
                </g>
            </g>
            <g id="face-happy" serif:id="face happy">
                <g id="left-ear1" serif:id="left ear" transform="matrix(1,0,0,1,5.5,0)">
                    <g transform="matrix(1,0,0,1,580,925)">
                        <path d="M149,164.446L149,175.554C149,178.008 146.984,180 144.5,180C142.016,180 140,178.008 140,175.554L140,164.446C140,161.992 142.016,160 144.5,160C146.984,160 149,161.992 149,164.446Z" style="stroke:black;stroke-width:1.24px;"/>
                    </g>
                    <g transform="matrix(0.5,0,0,0.5,652.25,1010)">
                        <path d="M149,164.446L149,175.554C149,178.008 146.984,180 144.5,180C142.016,180 140,178.008 140,175.554L140,164.446C140,161.992 142.016,160 144.5,160C146.984,160 149,161.992 149,164.446Z" style="fill:white;stroke:black;stroke-width:2.47px;"/>
                    </g>
                </g>
                <g id="left-ear2" serif:id="left ear" transform="matrix(1,0,0,1,31,0)">
                    <g transform="matrix(1,0,0,1,580,925)">
                        <path d="M149,164.446L149,175.554C149,178.008 146.984,180 144.5,180C142.016,180 140,178.008 140,175.554L140,164.446C140,161.992 142.016,160 144.5,160C146.984,160 149,161.992 149,164.446Z" style="stroke:black;stroke-width:1.24px;"/>
                    </g>
                    <g transform="matrix(0.5,0,0,0.5,652.25,1010)">
                        <path d="M149,164.446L149,175.554C149,178.008 146.984,180 144.5,180C142.016,180 140,178.008 140,175.554L140,164.446C140,161.992 142.016,160 144.5,160C146.984,160 149,161.992 149,164.446Z" style="fill:white;stroke:black;stroke-width:2.47px;"/>
                    </g>
                </g>
                <g id="mouth" transform="matrix(1,0,0,1,580,920)">
                    <path d="M157.035,189.623C157.035,189.623 157.576,193.871 162.262,194.228C167.043,194.593 167.209,189.985 167.209,189.985" style="fill:none;stroke:black;stroke-width:1.24px;"/>
                </g>
                <g transform="matrix(0.717255,0,0,0.606881,623.993,994.156)">
                    <path d="M153.176,189.662C153.176,191.053 152.208,192.183 151.016,192.183L144.911,192.183C143.72,192.183 142.752,191.053 142.752,189.662C142.752,188.27 143.72,187.14 144.911,187.14L151.016,187.14C152.208,187.14 153.176,188.27 153.176,189.662Z" style="fill:rgb(255,131,220);"/>
                </g>
                <g transform="matrix(0.717255,0,0,0.606881,649.657,994.156)">
                    <path d="M153.176,189.662C153.176,191.053 152.208,192.183 151.016,192.183L144.911,192.183C143.72,192.183 142.752,191.053 142.752,189.662C142.752,188.27 143.72,187.14 144.911,187.14L151.016,187.14C152.208,187.14 153.176,188.27 153.176,189.662Z" style="fill:rgb(255,131,220);"/>
                </g>
            </g>
            <g transform="matrix(1.24479,0,0,1.22985,-188.592,-227.513)">
                <g transform="matrix(1,0,0,1,580,920)">
                    <ellipse cx="225.633" cy="164.648" rx="9.013" ry="9.381" style="fill:rgb(18,86,153);"/>
                </g>
                <g transform="matrix(0.690736,0,0,0.741771,621.644,1036.51)">
                    <ellipse cx="225.633" cy="164.648" rx="9.013" ry="9.381" style="fill:rgb(18,86,153);"/>
                </g>
                <g transform="matrix(0.492359,0,0,0.444566,657.891,1093.63)">
                    <ellipse cx="225.633" cy="164.648" rx="9.013" ry="9.381" style="fill:rgb(18,86,153);"/>
                </g>
            </g>
        </g>
    </g>
</svg>
